<?xml version="1.0" encoding="UTF-8"?><svg id="Layer_2" xmlns="http://www.w3.org/2000/svg" viewBox="0 0 36 36"><defs><style>.cls-1{fill:#fff;}.cls-2{fill:#00539d;}</style></defs><g id="Layer_6"><g><circle class="cls-2" cx="18" cy="18" r="18"/><path class="cls-1" d="M25,32.64h0c-.08-.53-.21-1.05-.4-1.56-.85-2.37-2.65-4.07-4.75-4.79h0c-.05-.43-.06-.88-.03-1.33,0-.06,0-.12,.01-.17,0-.09,.01-.17,.02-.26,0-.06,.01-.11,.01-.17,.09-1.54-.27-3.01-.95-4.25-1.14-2.07-3.2-3.51-5.63-3.68-.48-.03-.95-.01-1.41,.06,1.84,.52,3.36,1.81,4.27,3.5h0c-1.55-1.74-3.82-2.73-6.24-2.47-.52,.05-1.02,.16-1.49,.32,3.51,.38,6.41,3.35,6.77,7.23,0,.03,0,.06,0,.1,.01,.15,.02,.31,.03,.46,0,.03,0,.07,0,.1,.02,.18,.04,.35,.07,.53-.16,.05-.32,.11-.48,.17-.03,.01-.06,.02-.08,.04-.13,.06-.26,.12-.4,.18-.03,.01-.06,.02-.08,.04-3.43,1.39-7.22-.04-9.11-3.21,.08,.52,.21,1.05,.4,1.56,.87,2.41,2.7,4.12,4.86,4.83h0c-1.83-.12-3.59-.99-4.85-2.5,.15,.47,.34,.93,.58,1.37,1.22,2.23,3.35,3.55,5.6,3.72,1.35,.1,2.74-.21,4-.99,.05-.03,.09-.06,.14-.09,.07-.05,.14-.09,.21-.14,.04-.03,.09-.06,.14-.09,.37-.22,.74-.41,1.13-.56h0c1.55,1.68,3.78,2.63,6.16,2.39,.52-.05,1.02-.16,1.49-.32h0Zm0,0l-.03-.03,.03,.03h0Zm-1.57-1.4h0Zm3.16-23.68c-.25-.5-.48-1.02-.63-1.57-.08-.28-.14-.56-.16-.85-.02-.22,.02-.45,.04-.67,0-.08,0-.12-.03-.15-.06-.05-.19,0-.29,.04-.39,.14-.69,.52-.9,.88-.15,.26-.25,.56-.29,.87-.02,.18-.06,.54,.04,.7,.03,.04,.1,.08,.13,.12,.1,.09,.19,.17,.28,.26,.59,.57,1.17,1.19,1.6,1.91,.2,.33,1.3,.68,.2-1.54Zm2.27,18.36c-.27,2.8-1.66,5.18-3.65,6.7,.65-1.24,1.08-2.64,1.23-4.14,.45-4.66-1.99-8.94-5.78-10.8,.03,.01,.05,.02,.07,.04-.49-.32-.95-.62-1.14-.78-.43-.36-.82-.79-1.15-1.26-.15-.21-.29-.43-.41-.66-.5-.91-.79-1.94-.85-2.99-.06-1.01-.04-2,.13-3,.47-2.6,2.24-5.31,4.91-5.82,.89-.17,1.59-.34,2.41,.05,.22,.1,.99,.44,.94,.72-.05,.31-.85,.61-1.09,.68-.16,.05-.34,.08-.51,.09-.16,.01-.33,0-.49-.02-.15-.03-.31-.07-.45-.13,.12,.11,.22,.22,.33,.34,.12,.13,.22,.27,.32,.41,.13,.2,.23,.42,.3,.66,.02,.08,.16,.68,.07,.69-.12,.01-.26-.01-.38-.01-1.19,0-2.05,.63-2.88,1.45-.85,.84-.96,2.56-.78,3.71,.2,1.25,.81,2.42,1.72,3.24,.59,.54,1.28,.92,1.98,1.27,.07,.03,.14,.07,.2,.1,3.26,1.68,5.34,5.4,4.95,9.45Z"/></g></g></svg>