<?xml version="1.0" encoding="UTF-8"?><svg id="Layer_2" xmlns="http://www.w3.org/2000/svg" viewBox="0 0 35.66 8.01"><defs><style>.cls-1{fill:#00539d;}</style></defs><g id="Layer_6"><g><path class="cls-1" d="M0,7.1l.91-1.31c.77,.45,1.7,.7,2.57,.7,.82,0,1.33-.29,1.36-.78,.03-.46-.26-.63-1.17-.83l-.95-.21C1,4.29,.31,3.5,.31,2.34,.3,1.07,1.61,.12,3.29,.12c1.15,0,2.25,.35,3.04,.82l-.85,1.3c-.62-.37-1.29-.61-2.03-.61-.79,0-1.35,.27-1.35,.76,0,.43,.33,.64,1.09,.81l1.05,.23c1.65,.36,2.33,1.06,2.33,2.28,0,1.33-1.27,2.29-3.18,2.3-1.22,0-2.52-.35-3.41-.91Z"/><path class="cls-1" d="M7.07,.33h3.57c1.78,0,2.89,1.02,2.89,2.56s-1,2.56-2.79,2.56h-1.98v2.55h-1.69V.33Zm3.59,3.63c.76,0,1.15-.44,1.15-1.07s-.39-1.06-1.15-1.06h-1.9V3.96h1.9Z"/><path class="cls-1" d="M16.12,0l4.4,8.01h-1.81l-.78-1.45h-3.66l-.77,1.45h-1.84L16.12,0Zm1.07,5.17l-1.09-2.03-1.08,2.03h2.17Z"/><path class="cls-1" d="M25.55,8.01l-2.94-3.21v3.21h-1.69V.33h3.66c1.78,0,2.9,.9,2.9,2.44s-.91,2.29-2.57,2.34l2.89,2.89h-2.24Zm-2.94-4.29h2.11c.64,0,1.04-.32,1.04-.95s-.41-.94-1.04-.94h-2.11v1.88Z"/><path class="cls-1" d="M28.28,4.02C28.28,1.79,30.07,.03,32.4,.03c1.32,0,2.47,.56,3.22,1.46l-1.29,1.01c-.45-.56-1.14-.89-1.93-.89-1.35,0-2.44,1-2.44,2.41s1.09,2.42,2.44,2.42c.8,0,1.5-.35,1.95-.92l1.31,.99c-.74,.92-1.91,1.5-3.26,1.5-2.33,0-4.12-1.74-4.12-3.98Z"/></g></g></svg>